<?xml version="1.0" encoding="UTF-8" standalone="no"?>
<!-- Created with Inkscape (http://www.inkscape.org/) -->

<svg
   width="21.608335mm"
   height="21.608337mm"
   viewBox="0 0 21.608335 21.608337"
   version="1.1"
   id="svg5"
   xmlns="http://www.w3.org/2000/svg"
   xmlns:svg="http://www.w3.org/2000/svg">
  <defs
     id="defs2">
    <rect
       x="145.1485"
       y="367.94696"
       width="27.345802"
       height="54.739616"
       id="rect452-6-1-9" />
  </defs>
  <g
     id="layer1"
     transform="translate(-31.371135,-32.000808)">
    <g
       id="g1834-2-3"
       transform="matrix(0.28069511,0,0,0.28069511,3.4260026,29.049168)">
      <rect
         style="display:inline;fill:#002255;stroke:#acacac;stroke-width:5.34388;stroke-linecap:square;stroke-linejoin:miter;stroke-dasharray:none;stroke-opacity:1;paint-order:markers fill stroke"
         id="rect1168-2-7-6"
         width="71.637634"
         height="71.637634"
         x="102.22883"
         y="13.187407" />
      <g
         aria-label="4"
         transform="matrix(1.8081002,0,0,1.8081002,-146.63739,-655.00093)"
         id="text450-9-0-0"
         style="font-size:40px;font-family:'NT Wagner';-inkscape-font-specification:'NT Wagner';white-space:pre;shape-inside:url(#rect452-6-1-9);display:inline;fill:#87aade;stroke-width:5.66929;stroke-linecap:round;stroke-linejoin:round;paint-order:stroke markers fill">
        <path
           d="m 168.42844,393.56438 h -1.8 c -0.32,0 -0.56,-0.24 -0.56,-0.52 v -15.6 c 0,-1.16 -0.28,-2.08 -2.04,-2.08 h -4 c -1.4,0 -2,-0.16 -3.48,1.88 l -10.68,16.28 c -0.84,1.28 0.08,3.04 1.68,3.04 h 9.48 c 0.28,0 0.52,0.24 0.52,0.52 v 0.76 c 0,1.6 -0.04,2.08 -0.56,2.88 -0.8,1.08 -1.04,1.16 -1,1.72 0.08,0.64 0.48,0.92 1.4,0.92 0.04,0 8.8,0 8.84,0 0.92,0 1.36,-0.28 1.4,-0.92 0.04,-0.56 -0.2,-0.64 -0.96,-1.72 -0.56,-0.8 -0.6,-1.28 -0.6,-2.88 v -0.76 c 0,-0.28 0.24,-0.52 0.56,-0.52 h 1.8 c 0.52,0 0.92,-0.44 0.92,-0.96 v -1.12 c 0,-0.52 -0.4,-0.92 -0.92,-0.92 z m -10.88,-0.52 c 0,0.28 -0.24,0.52 -0.52,0.52 h -6.36 c -0.32,0 -0.52,-0.4 -0.36,-0.68 l 6.76,-10.28 c 0.12,-0.24 0.48,-0.12 0.48,0.12 z"
           id="path3355" />
      </g>
    </g>
  </g>
</svg>
