<?xml version="1.0" encoding="UTF-8" standalone="no"?>
<!-- Created with Inkscape (http://www.inkscape.org/) -->

<svg
   width="21.608337mm"
   height="21.60833mm"
   viewBox="0 0 21.608337 21.60833"
   version="1.1"
   id="svg5"
   xml:space="preserve"
   xmlns="http://www.w3.org/2000/svg"
   xmlns:svg="http://www.w3.org/2000/svg"><defs
     id="defs2"><linearGradient
       id="linearGradient9173"><stop
         style="stop-color:#333333;stop-opacity:1;"
         offset="0"
         id="stop9171" /></linearGradient></defs><g
     id="layer1"
     transform="translate(-92.452646,-73.202757)"><g
       id="g3131-6-1-5-4"
       transform="matrix(0.28069511,0,0,0.28069511,87.12223,70.222479)"
       style="fill:#acacac;fill-opacity:1;stroke:none;stroke-width:5.34388;stroke-dasharray:none;stroke-opacity:1"><rect
         style="display:inline;fill:#999999;fill-opacity:1;stroke:none;stroke-width:5.34388;stroke-linecap:square;stroke-linejoin:miter;stroke-dasharray:none;stroke-opacity:1;paint-order:markers fill stroke"
         id="rect3125-7-2-9-8"
         width="71.637634"
         height="71.637634"
         x="21.662008"
         y="13.28943" /><path
         style="fill:#f2f2f2;fill-opacity:1;stroke-width:1.40263;stroke-linecap:round;stroke-linejoin:round;paint-order:stroke markers fill"
         d="m 56.183785,32.38537 h 21.608333 l -2.575437,2.575437 H 58.759219 v 16.457458 l -2.575434,2.575439 z"
         id="path3127-5-7-2-7"
         transform="matrix(3.5625844,0,0,3.5625844,-181.1694,-104.75812)" /><path
         style="fill:#4d4d4d;fill-opacity:1;stroke:#acacac;stroke-width:0;stroke-linecap:round;stroke-linejoin:round;stroke-dasharray:none;stroke-opacity:1;paint-order:stroke markers fill"
         d="M 77.792118,53.993704 H 56.183785 l 2.575434,-2.575439 16.457464,-3e-6 -2e-6,-16.457455 2.575437,-2.575436 z"
         id="path3129-3-0-2-1"
         transform="matrix(3.5625844,0,0,3.5625844,-181.1694,-104.75812)" /><g
         id="g4147-8-7"
         transform="matrix(0.01902783,0,0,0.01902783,34.646442,27.18843)" /><g
         id="g7451-9-2"
         transform="matrix(-4.3534029,0,0,4.3534029,456.12897,-252.99453)" /></g></g></svg>
