<?xml version="1.0" encoding="UTF-8" standalone="no"?>
<!-- Created with Inkscape (http://www.inkscape.org/) -->

<svg
   width="283.10416mm"
   height="40.75679mm"
   viewBox="0 0 283.10416 40.75679"
   version="1.1"
   id="svg5"
   inkscape:version="1.2.2 (b0a8486541, 2022-12-01)"
   sodipodi:docname="drawing.svg"
   inkscape:export-filename="_1.svg"
   inkscape:export-xdpi="96"
   inkscape:export-ydpi="96"
   xml:space="preserve"
   xmlns:inkscape="http://www.inkscape.org/namespaces/inkscape"
   xmlns:sodipodi="http://sodipodi.sourceforge.net/DTD/sodipodi-0.dtd"
   xmlns="http://www.w3.org/2000/svg"
   xmlns:svg="http://www.w3.org/2000/svg"><sodipodi:namedview
     id="namedview7"
     pagecolor="#ffffff"
     bordercolor="#000000"
     borderopacity="0.25"
     inkscape:showpageshadow="2"
     inkscape:pageopacity="0.0"
     inkscape:pagecheckerboard="0"
     inkscape:deskcolor="#d1d1d1"
     inkscape:document-units="mm"
     showgrid="false"
     inkscape:zoom="1.8338662"
     inkscape:cx="283.2813"
     inkscape:cy="949.36043"
     inkscape:window-width="1912"
     inkscape:window-height="979"
     inkscape:window-x="4"
     inkscape:window-y="60"
     inkscape:window-maximized="0"
     inkscape:current-layer="layer2"
     showguides="true"><sodipodi:guide
       position="87.634334,81.397466"
       orientation="0,-1"
       id="guide5775"
       inkscape:locked="false" /></sodipodi:namedview><defs
     id="defs2"><linearGradient
       id="linearGradient9173"
       inkscape:swatch="solid"><stop
         style="stop-color:#333333;stop-opacity:1;"
         offset="0"
         id="stop9171" /></linearGradient><rect
       x="145.1485"
       y="367.94696"
       width="22.549166"
       height="49.247948"
       id="rect452" /><rect
       x="145.1485"
       y="367.94696"
       width="24.111588"
       height="50.907734"
       id="rect452-6" /><rect
       x="145.1485"
       y="367.94696"
       width="24.111588"
       height="50.907734"
       id="rect452-6-1" /><rect
       x="145.1485"
       y="367.94696"
       width="27.345802"
       height="54.739616"
       id="rect452-6-1-9" /><rect
       x="145.1485"
       y="367.94696"
       width="27.345802"
       height="54.739616"
       id="rect452-6-1-9-6" /><rect
       x="145.1485"
       y="367.94696"
       width="27.345802"
       height="54.739616"
       id="rect452-6-1-9-6-8" /><rect
       x="145.1485"
       y="367.94696"
       width="27.345802"
       height="54.739616"
       id="rect452-6-1-9-6-8-0" /></defs><g
     inkscape:groupmode="layer"
     id="layer2"
     inkscape:label="Layer 2"
     transform="translate(-8.2632515,-241.20231)"><rect
       style="display:inline;fill:#b3b3b3;stroke:#b3b3b3;stroke-width:2.81829;stroke-linecap:round;stroke-linejoin:round;paint-order:stroke markers fill"
       id="rect1453"
       width="280.28589"
       height="37.927532"
       x="9.6723967"
       y="242.61693"
       inkscape:export-filename="sprites/logo.svg"
       inkscape:export-xdpi="96"
       inkscape:export-ydpi="96" /><g
       id="g1825"
       inkscape:export-filename="sprites/logo.svg"
       inkscape:export-xdpi="600"
       inkscape:export-ydpi="600"
       transform="matrix(1.8715878,0,0,1.8861608,-6.9099817,-213.75436)"><g
         id="g1828-3-6"
         inkscape:export-filename="1.svg"
         inkscape:export-xdpi="96"
         inkscape:export-ydpi="96"
         transform="matrix(0.28069511,0,0,0.28069511,2.7796394,238.2275)"
         style="stroke-width:5.34388;stroke-dasharray:none"><rect
           style="display:inline;fill:#0044aa;stroke:#acacac;stroke-width:5.34388;stroke-linecap:square;stroke-linejoin:miter;stroke-dasharray:none;stroke-opacity:1;paint-order:markers fill stroke"
           id="rect1168-6-1"
           width="71.637634"
           height="71.637634"
           x="21.662008"
           y="13.28943"
           inkscape:export-filename="_0.svg"
           inkscape:export-xdpi="96"
           inkscape:export-ydpi="96" /><g
           aria-label="1"
           transform="matrix(1.8081002,0,0,1.8081002,-219.17474,-654.53493)"
           id="text450-75-2"
           style="font-size:40px;white-space:pre;shape-inside:url(#rect452);display:inline;fill:#ffffff;stroke-width:2.95552;stroke-linecap:round;stroke-linejoin:round;stroke-dasharray:none;paint-order:stroke markers fill" /></g><g
         id="g1834-5-9"
         inkscape:export-filename="2.svg"
         inkscape:export-xdpi="96"
         inkscape:export-ydpi="96"
         transform="matrix(0.28069511,0,0,0.28069511,1.7732616,238.25614)"
         style="stroke-width:5.34388;stroke-dasharray:none"><rect
           style="display:inline;fill:#217821;stroke:#acacac;stroke-width:5.34388;stroke-linecap:square;stroke-linejoin:miter;stroke-dasharray:none;stroke-opacity:1;paint-order:markers fill stroke"
           id="rect1168-2-6-3"
           width="71.637634"
           height="71.637634"
           x="102.22883"
           y="13.187407"
           inkscape:export-filename="_0.svg"
           inkscape:export-xdpi="96"
           inkscape:export-ydpi="96" /><g
           aria-label="2"
           transform="matrix(1.8081002,0,0,1.8081002,-145.64266,-654.64197)"
           id="text450-9-2-1"
           style="font-size:40px;font-family:'NT Wagner';-inkscape-font-specification:'NT Wagner';white-space:pre;shape-inside:url(#rect452-6);display:inline;fill:#ffffff;stroke-width:2.95552;stroke-linecap:round;stroke-linejoin:round;stroke-dasharray:none;paint-order:stroke markers fill" /></g><g
         id="g1834-2-1-9"
         inkscape:export-filename="3.svg"
         inkscape:export-xdpi="96"
         inkscape:export-ydpi="96"
         transform="matrix(0.28069511,0,0,0.28069511,23.381596,238.25614)"
         style="stroke-width:5.34388;stroke-dasharray:none"><rect
           style="display:inline;fill:#aa0000;stroke:#acacac;stroke-width:5.34388;stroke-linecap:square;stroke-linejoin:miter;stroke-dasharray:none;stroke-opacity:1;paint-order:markers fill stroke"
           id="rect1168-2-7-2-4"
           width="71.637634"
           height="71.637634"
           x="102.22883"
           y="13.187407"
           inkscape:export-filename="_0.svg"
           inkscape:export-xdpi="96"
           inkscape:export-ydpi="96" /><g
           aria-label="3"
           transform="matrix(1.8081002,0,0,1.8081002,-145.0278,-655.36521)"
           id="text450-9-0-7-7"
           style="font-size:40px;font-family:'NT Wagner';-inkscape-font-specification:'NT Wagner';white-space:pre;shape-inside:url(#rect452-6-1);display:inline;fill:#ffd5d5;stroke-width:2.95552;stroke-linecap:round;stroke-linejoin:round;stroke-dasharray:none;paint-order:stroke markers fill" /></g><g
         id="g1834-2-3-9-8"
         inkscape:export-filename="4.svg"
         inkscape:export-xdpi="96"
         inkscape:export-ydpi="96"
         transform="matrix(0.28069511,0,0,0.28069511,44.989931,238.25614)"
         style="stroke-width:5.34388;stroke-dasharray:none"><rect
           style="display:inline;fill:#002255;stroke:#acacac;stroke-width:5.34388;stroke-linecap:square;stroke-linejoin:miter;stroke-dasharray:none;stroke-opacity:1;paint-order:markers fill stroke"
           id="rect1168-2-7-6-3-4"
           width="71.637634"
           height="71.637634"
           x="102.22883"
           y="13.187407"
           inkscape:export-filename="_0.svg"
           inkscape:export-xdpi="96"
           inkscape:export-ydpi="96" /><g
           aria-label="4"
           transform="matrix(1.8081002,0,0,1.8081002,-146.63739,-655.00093)"
           id="text450-9-0-0-6-5"
           style="font-size:40px;font-family:'NT Wagner';-inkscape-font-specification:'NT Wagner';white-space:pre;shape-inside:url(#rect452-6-1-9);display:inline;fill:#87aade;stroke-width:2.95552;stroke-linecap:round;stroke-linejoin:round;stroke-dasharray:none;paint-order:stroke markers fill" /></g><g
         id="g1834-2-3-2-7-22-0"
         inkscape:export-filename="6.svg"
         inkscape:export-xdpi="96"
         inkscape:export-ydpi="96"
         transform="matrix(0.28069511,0,0,0.28069511,88.2066,238.25614)"
         style="stroke-width:5.34388;stroke-dasharray:none"><rect
           style="display:inline;fill:#008066;stroke:#acacac;stroke-width:5.34388;stroke-linecap:square;stroke-linejoin:miter;stroke-dasharray:none;stroke-opacity:1;paint-order:markers fill stroke"
           id="rect1168-2-7-6-6-9-8-3"
           width="71.637634"
           height="71.637634"
           x="102.22883"
           y="13.187407"
           inkscape:export-filename="_0.svg"
           inkscape:export-xdpi="96"
           inkscape:export-ydpi="96" /><g
           aria-label="6"
           transform="matrix(1.8081002,0,0,1.8081002,-146.70723,-655.00359)"
           id="text450-9-0-0-1-2-9-6"
           style="font-size:40px;font-family:'NT Wagner';-inkscape-font-specification:'NT Wagner';white-space:pre;shape-inside:url(#rect452-6-1-9-6-8);display:inline;fill:#d5fff6;stroke-width:2.95552;stroke-linecap:round;stroke-linejoin:round;stroke-dasharray:none;paint-order:stroke markers fill" /></g><g
         id="g1834-2-3-2-0-1"
         inkscape:export-filename="5.svg"
         inkscape:export-xdpi="96"
         inkscape:export-ydpi="96"
         transform="matrix(0.28069511,0,0,0.28069511,66.598267,238.25614)"
         style="stroke-width:5.34388;stroke-dasharray:none"><rect
           style="display:inline;fill:#550000;stroke:#acacac;stroke-width:5.34388;stroke-linecap:square;stroke-linejoin:miter;stroke-dasharray:none;stroke-opacity:1;paint-order:markers fill stroke"
           id="rect1168-2-7-6-6-2-0"
           width="71.637634"
           height="71.637634"
           x="102.22883"
           y="13.187407"
           inkscape:export-filename="_0.svg"
           inkscape:export-xdpi="96"
           inkscape:export-ydpi="96" /><g
           aria-label="5"
           transform="matrix(1.8081002,0,0,1.8081002,-144.98606,-655.36521)"
           id="text450-9-0-0-1-3-6"
           style="font-size:40px;font-family:'NT Wagner';-inkscape-font-specification:'NT Wagner';white-space:pre;shape-inside:url(#rect452-6-1-9-6);display:inline;fill:#e9afaf;stroke-width:2.95552;stroke-linecap:round;stroke-linejoin:round;stroke-dasharray:none;paint-order:stroke markers fill" /></g><g
         id="g1834-2-3-2-7-2-1-3"
         inkscape:export-filename="7.svg"
         inkscape:export-xdpi="96"
         inkscape:export-ydpi="96"
         transform="matrix(0.28069511,0,0,0.28069511,109.81493,238.25614)"
         style="stroke-width:5.34388;stroke-dasharray:none"><rect
           style="display:inline;fill:#440055;stroke:#acacac;stroke-width:5.34388;stroke-linecap:square;stroke-linejoin:miter;stroke-dasharray:none;stroke-opacity:1;paint-order:markers fill stroke"
           id="rect1168-2-7-6-6-9-3-29-2"
           width="71.637634"
           height="71.637634"
           x="102.22883"
           y="13.187407"
           inkscape:export-filename="_0.svg"
           inkscape:export-xdpi="96"
           inkscape:export-ydpi="96" /><g
           aria-label="7"
           transform="matrix(1.8081002,0,0,1.8081002,-144.51931,-655.00359)"
           id="text450-9-0-0-1-2-7-3-0"
           style="font-size:40px;font-family:'NT Wagner';-inkscape-font-specification:'NT Wagner';white-space:pre;shape-inside:url(#rect452-6-1-9-6-8-0);display:inline;fill:#f6d5ff;stroke-width:2.95552;stroke-linecap:round;stroke-linejoin:round;stroke-dasharray:none;paint-order:stroke markers fill" /></g><g
         aria-label="M"
         transform="scale(0.93836773,1.0656803)"
         id="text718-61"
         style="font-weight:bold;font-size:14.0252px;font-family:'NT Wagner';-inkscape-font-specification:'NT Wagner Bold';fill:#d5e5ff;stroke-width:1.98782;stroke-linecap:round;stroke-linejoin:round;paint-order:stroke markers fill"><path
           d="m 26.159303,239.45319 -1.037865,-5.94668 c -0.09818,-0.56101 -0.02805,-0.72931 0.154277,-1.00981 0.266479,-0.37869 0.35063,-0.42076 0.35063,-0.60309 -0.02805,-0.2244 -0.168302,-0.32258 -0.490882,-0.32258 h -3.085544 c -0.322579,0 -0.40673,0.14025 -0.476856,0.35063 l -1.458621,4.71247 c -0.02805,0.1122 -0.182328,0.0982 -0.210378,-0.014 l -1.150067,-4.69844 c -0.0561,-0.21038 -0.252453,-0.35063 -0.462831,-0.35063 h -3.099569 c -0.32258,0 -0.476857,0.0982 -0.490882,0.32258 -0.01403,0.18233 0.07013,0.2244 0.336605,0.60309 0.196352,0.2805 0.252453,0.4488 0.154277,1.00981 l -1.02384,5.94668 c -0.182327,1.00982 -0.855537,1.17812 -0.855537,1.6129 0.01403,0.22441 0.168302,0.32258 0.490882,0.32258 0,0 1.7251,0 1.739125,0 0.322579,0 0.462831,-0.0982 0.490882,-0.32258 0,-0.19635 -0.08415,-0.2244 -0.35063,-0.60308 -0.140252,-0.21038 -0.252454,-0.30856 -0.140252,-0.95371 l 0.771386,-4.48807 c 0.01403,-0.1122 0.182327,-0.1122 0.210378,0 l 1.907427,5.93266 c 0.07013,0.25245 0.308554,0.43478 0.575033,0.43478 h 0.448806 c 0.266479,0 0.504908,-0.18233 0.575034,-0.43478 l 1.977553,-5.93266 c 0.02805,-0.1122 0.196353,-0.1122 0.224403,0.014 l 0.771386,4.47404 c 0.112202,0.64515 -0.01403,0.74333 -0.154277,0.95371 -0.266479,0.37868 -0.35063,0.40673 -0.336605,0.60308 0.01403,0.22441 0.168302,0.32258 0.490882,0.32258 0,0 3.5063,0 3.5063,0 0.336605,0 0.476857,-0.0982 0.490882,-0.32258 0,-0.43478 -0.67321,-0.58906 -0.841512,-1.6129 z"
           id="path1827" /></g><g
         aria-label="IN"
         transform="scale(0.93836773,1.0656803)"
         id="text718-6-5"
         style="font-weight:bold;font-size:14.0252px;font-family:'NT Wagner';-inkscape-font-specification:'NT Wagner Bold';fill:#d7f4d7;stroke-width:1.98782;stroke-linecap:round;stroke-linejoin:round;paint-order:stroke markers fill"><path
           d="m 39.250035,239.45319 v -5.94668 c 0,-0.56101 0.01403,-0.72931 0.196353,-1.00981 0.266478,-0.37869 0.35063,-0.42076 0.35063,-0.60309 -0.02805,-0.2244 -0.168303,-0.32258 -0.490882,-0.32258 -0.01403,0 -3.09957,0 -3.09957,0 -0.322579,0 -0.476856,0.0982 -0.490882,0.32258 -0.01403,0.18233 0.07013,0.2244 0.336605,0.60309 0.196353,0.2805 0.196353,0.4488 0.196353,1.00981 v 5.94668 c 0,0.56101 0,0.72931 -0.196353,1.00982 -0.266479,0.37868 -0.35063,0.40673 -0.336605,0.60308 0.01403,0.22441 0.168303,0.32258 0.490882,0.32258 0,0 3.085544,0 3.09957,0 0.322579,0 0.462831,-0.0982 0.490882,-0.32258 0,-0.19635 -0.08415,-0.2244 -0.35063,-0.60308 -0.182328,-0.28051 -0.196353,-0.44881 -0.196353,-1.00982 z"
           id="path1830" /><path
           d="m 50.652516,231.89361 c -0.01403,-0.21038 -0.168303,-0.32258 -0.490882,-0.32258 -0.01403,0 -1.388495,0 -1.40252,0 -0.32258,0 -0.462832,0.1122 -0.490882,0.32258 -0.01403,0.19635 0.07013,0.23843 0.35063,0.61711 0.182327,0.26648 0.196352,0.43478 0.196352,0.99579 v 4.29171 c 0,0.14025 -0.196352,0.19635 -0.266478,0.0701 -1.37447,-2.27209 -3.323973,-5.38568 -3.47825,-5.63813 -0.336605,-0.56101 -0.490882,-0.65919 -1.164092,-0.65919 0,0 -2.622712,0 -2.636737,0 -0.32258,0 -0.462832,0.1122 -0.490882,0.32258 0,0.19635 0.08415,0.23843 0.35063,0.61711 0.182327,0.26648 0.196353,0.2805 0.196353,0.99579 v 5.94668 c 0,0.56101 -0.01403,0.74334 -0.196353,1.00982 -0.266479,0.37868 -0.35063,0.42075 -0.35063,0.60308 0.02805,0.22441 0.168302,0.32258 0.490882,0.32258 0.01402,0 1.40252,0 1.40252,0 0.322579,0 0.476857,-0.0982 0.490882,-0.32258 0.01403,-0.18233 -0.07013,-0.2244 -0.336605,-0.60308 -0.196353,-0.26648 -0.196353,-0.44881 -0.196353,-1.00982 v -4.78259 c 0,-0.14025 0.182328,-0.19635 0.252454,-0.0701 1.528747,2.46843 3.464224,5.6241 3.744728,6.07291 0.392706,0.65918 0.659185,0.71528 1.318369,0.71528 h 1.500696 c 0.462832,0 0.659185,-0.36465 0.659185,-0.77138 v -7.11078 c 0,-0.56101 0.01402,-0.72931 0.196353,-0.99579 0.280504,-0.37868 0.364655,-0.42076 0.35063,-0.61711 z"
           id="path1832" /></g><g
         aria-label="ES"
         transform="scale(0.93836773,1.0656803)"
         id="text718-6-8-7"
         style="font-weight:bold;font-size:14.0252px;font-family:'NT Wagner';-inkscape-font-specification:'NT Wagner Bold';fill:#ffd5d5;stroke-width:1.98782;stroke-linecap:round;stroke-linejoin:round;paint-order:stroke markers fill"><path
           d="m 65.204994,238.47143 c -0.561008,0 -0.813461,0.57503 -1.05189,1.00981 -0.168302,0.32258 -0.504907,0.86957 -1.332394,0.86957 h -0.561008 c -0.827486,0 -1.023839,-0.0561 -1.065915,-0.57504 0,-0.0982 0,-2.58063 0,-2.58063 0,-0.18233 0.154277,-0.32258 0.336605,-0.32258 h 0.434781 c 0.687235,0 0.771386,1.09396 1.248243,1.09396 0.420756,0 0.32258,-0.58906 0.32258,-1.61289 0,-1.02384 0.09818,-1.6129 -0.32258,-1.6129 -0.476857,0 -0.561008,1.09396 -1.248243,1.09396 h -0.434781 c -0.182328,0 -0.336605,-0.15427 -0.336605,-0.3366 0,0 0,-2.00561 0,-2.01963 0.01402,-0.86956 0.140252,-0.86956 1.150067,-0.86956 h 0.140252 c 0.827486,0 1.164091,0.54698 1.332394,0.86956 0.238428,0.43478 0.490882,1.00981 1.05189,1.00981 0.294529,0 0.40673,-0.21037 0.35063,-0.57503 -0.08415,-0.51893 -0.210378,-1.16409 -0.29453,-1.669 -0.08415,-0.50491 -0.294529,-0.67321 -0.785411,-0.67321 h -5.98876 c -0.32258,0 -0.476857,0.0982 -0.490882,0.32258 -0.01402,0.18233 0.07013,0.2244 0.336605,0.60309 0.196352,0.2805 0.196352,0.4488 0.196352,1.00981 v 5.94668 c 0,0.56101 0,0.72931 -0.196352,1.00982 -0.266479,0.37868 -0.35063,0.40673 -0.336605,0.60308 0.01403,0.22441 0.168302,0.32258 0.490882,0.32258 0.01402,0 6.325365,0 6.325365,0 0.490882,0 0.70126,-0.1683 0.785411,-0.67321 0.08415,-0.5049 0.210378,-1.15006 0.294529,-1.669 0.0561,-0.36465 -0.0561,-0.57503 -0.35063,-0.57503 z"
           id="path1835" /><path
           d="m 71.305953,235.51211 c -1.514721,-0.4488 -2.047679,-1.09396 -2.13183,-1.73912 -0.08415,-0.67321 0.392705,-1.16409 1.136041,-1.16409 1.304344,0.0281 1.514722,1.30434 1.935478,1.90742 0.476856,0.68724 1.346419,0.68724 1.879376,0.25246 1.037865,-0.88359 -0.589058,-3.338 -3.814854,-3.338 -1.065915,0 -3.337997,0.2805 -3.800829,2.42636 -0.603084,2.88919 2.903216,3.68863 4.249635,4.37586 0.561008,0.29453 1.02384,0.77139 0.925664,1.31837 -0.112202,0.63113 -0.729311,0.84151 -1.276294,0.79944 -1.500696,-0.0982 -1.753149,-1.16409 -2.089754,-1.8373 -0.406731,-0.81347 -1.486671,-0.72931 -1.963528,-0.23843 -0.925663,0.95371 0.434781,3.25384 4.067308,3.25384 2.10378,0 4.067308,-0.86956 4.305736,-2.56661 0.280504,-1.92145 -1.037865,-2.72089 -3.422149,-3.4502 z"
           id="path1837" /></g><g
         aria-label="EE"
         transform="scale(0.93836773,1.0656803)"
         id="text718-6-8-5-5"
         style="font-weight:bold;font-size:14.0252px;font-family:'NT Wagner';-inkscape-font-specification:'NT Wagner Bold';fill:#e9afaf;stroke-width:1.98782;stroke-linecap:round;stroke-linejoin:round;paint-order:stroke markers fill"><path
           d="m 111.54529,238.47143 c -0.56101,0 -0.81346,0.57503 -1.05189,1.00981 -0.1683,0.32258 -0.50491,0.86957 -1.33239,0.86957 H 108.6 c -0.82749,0 -1.02384,-0.0561 -1.06592,-0.57504 0,-0.0982 0,-2.58063 0,-2.58063 0,-0.18233 0.15428,-0.32258 0.33661,-0.32258 h 0.43478 c 0.68724,0 0.77139,1.09396 1.24824,1.09396 0.42076,0 0.32258,-0.58906 0.32258,-1.61289 0,-1.02384 0.0982,-1.6129 -0.32258,-1.6129 -0.47685,0 -0.561,1.09396 -1.24824,1.09396 h -0.43478 c -0.18233,0 -0.33661,-0.15427 -0.33661,-0.3366 0,0 0,-2.00561 0,-2.01963 0.014,-0.86956 0.14026,-0.86956 1.15007,-0.86956 h 0.14025 c 0.82749,0 1.16409,0.54698 1.3324,0.86956 0.23843,0.43478 0.49088,1.00981 1.05189,1.00981 0.29453,0 0.40673,-0.21037 0.35063,-0.57503 -0.0841,-0.51893 -0.21038,-1.16409 -0.29453,-1.669 -0.0842,-0.50491 -0.29453,-0.67321 -0.78541,-0.67321 h -5.98876 c -0.32258,0 -0.47686,0.0982 -0.49089,0.32258 -0.014,0.18233 0.0701,0.2244 0.33661,0.60309 0.19635,0.2805 0.19635,0.4488 0.19635,1.00981 v 5.94668 c 0,0.56101 0,0.72931 -0.19635,1.00982 -0.26648,0.37868 -0.35063,0.40673 -0.33661,0.60308 0.014,0.22441 0.16831,0.32258 0.49089,0.32258 0.014,0 6.32536,0 6.32536,0 0.49088,0 0.70126,-0.1683 0.78541,-0.67321 0.0842,-0.5049 0.21038,-1.15006 0.29453,-1.669 0.0561,-0.36465 -0.0561,-0.57503 -0.35063,-0.57503 z"
           id="path1840" /><path
           d="m 120.17079,238.47143 c -0.56101,0 -0.81346,0.57503 -1.05189,1.00981 -0.16831,0.32258 -0.50491,0.86957 -1.3324,0.86957 h -0.56101 c -0.82748,0 -1.02383,-0.0561 -1.06591,-0.57504 0,-0.0982 0,-2.58063 0,-2.58063 0,-0.18233 0.15428,-0.32258 0.3366,-0.32258 h 0.43479 c 0.68723,0 0.77138,1.09396 1.24824,1.09396 0.42075,0 0.32258,-0.58906 0.32258,-1.61289 0,-1.02384 0.0982,-1.6129 -0.32258,-1.6129 -0.47686,0 -0.56101,1.09396 -1.24824,1.09396 h -0.43479 c -0.18232,0 -0.3366,-0.15427 -0.3366,-0.3366 0,0 0,-2.00561 0,-2.01963 0.014,-0.86956 0.14025,-0.86956 1.15007,-0.86956 h 0.14025 c 0.82748,0 1.16409,0.54698 1.33239,0.86956 0.23843,0.43478 0.49088,1.00981 1.05189,1.00981 0.29453,0 0.40673,-0.21037 0.35063,-0.57503 -0.0841,-0.51893 -0.21038,-1.16409 -0.29453,-1.669 -0.0842,-0.50491 -0.29453,-0.67321 -0.78541,-0.67321 h -5.98876 c -0.32258,0 -0.47686,0.0982 -0.49088,0.32258 -0.014,0.18233 0.0701,0.2244 0.3366,0.60309 0.19636,0.2805 0.19636,0.4488 0.19636,1.00981 v 5.94668 c 0,0.56101 0,0.72931 -0.19636,1.00982 -0.26647,0.37868 -0.35063,0.40673 -0.3366,0.60308 0.014,0.22441 0.1683,0.32258 0.49088,0.32258 0.014,0 6.32537,0 6.32537,0 0.49088,0 0.70126,-0.1683 0.78541,-0.67321 0.0842,-0.5049 0.21038,-1.15006 0.29453,-1.669 0.0561,-0.36465 -0.0561,-0.57503 -0.35063,-0.57503 z"
           id="path1842" /></g><g
         aria-label="PE"
         transform="scale(0.93836773,1.0656803)"
         id="text718-6-8-5-3-3"
         style="font-weight:bold;font-size:14.0252px;font-family:'NT Wagner';-inkscape-font-specification:'NT Wagner Bold';fill:#d5fff6;stroke-width:1.98782;stroke-linecap:round;stroke-linejoin:round;paint-order:stroke markers fill"><path
           d="m 131.46629,231.57103 c 0,0 -4.48806,0 -4.48806,0 -0.32258,0 -0.47686,0.1122 -0.49089,0.32258 -0.014,0.19635 0.0701,0.23843 0.33661,0.61711 0.19635,0.26648 0.19635,0.43478 0.19635,0.99579 v 5.94668 c 0,0.56101 0,0.74334 -0.19635,1.00982 -0.26648,0.37868 -0.35063,0.42075 -0.33661,0.60308 0.014,0.22441 0.16831,0.32258 0.49089,0.32258 0,0 3.08554,0 3.09957,0 0.32258,0 0.46283,-0.0982 0.49088,-0.32258 0,-0.18233 -0.0701,-0.2244 -0.35063,-0.60308 -0.18233,-0.26648 -0.19636,-0.44881 -0.19636,-1.00982 v -0.63113 c 0.0281,-0.63113 0.16831,-0.77139 0.98177,-0.77139 0.0281,0 0.43478,0 0.65918,0 2.45441,0 3.74473,-1.54277 3.74473,-3.23982 0,-1.68302 -1.29032,-3.23982 -3.94108,-3.23982 z m -0.63113,5.44178 c -0.63114,0 -0.78541,-0.12623 -0.81347,-0.60308 v -2.17391 c 0,-1.34642 -0.14025,-1.62692 0.81347,-1.62692 0.82748,0 1.58484,0.98176 1.58484,2.37026 0,1.09396 -0.37868,2.03365 -1.58484,2.03365 z"
           id="path1845" /><path
           d="m 143.73833,238.47143 c -0.56101,0 -0.81346,0.57503 -1.05189,1.00981 -0.1683,0.32258 -0.50491,0.86957 -1.33239,0.86957 h -0.56101 c -0.82749,0 -1.02384,-0.0561 -1.06592,-0.57504 0,-0.0982 0,-2.58063 0,-2.58063 0,-0.18233 0.15428,-0.32258 0.33661,-0.32258 h 0.43478 c 0.68724,0 0.77139,1.09396 1.24824,1.09396 0.42076,0 0.32258,-0.58906 0.32258,-1.61289 0,-1.02384 0.0982,-1.6129 -0.32258,-1.6129 -0.47685,0 -0.561,1.09396 -1.24824,1.09396 h -0.43478 c -0.18233,0 -0.33661,-0.15427 -0.33661,-0.3366 0,0 0,-2.00561 0,-2.01963 0.014,-0.86956 0.14026,-0.86956 1.15007,-0.86956 h 0.14025 c 0.82749,0 1.16409,0.54698 1.3324,0.86956 0.23843,0.43478 0.49088,1.00981 1.05189,1.00981 0.29453,0 0.40673,-0.21037 0.35063,-0.57503 -0.0842,-0.51893 -0.21038,-1.16409 -0.29453,-1.669 -0.0841,-0.50491 -0.29453,-0.67321 -0.78541,-0.67321 h -5.98876 c -0.32258,0 -0.47686,0.0982 -0.49089,0.32258 -0.014,0.18233 0.0701,0.2244 0.33661,0.60309 0.19635,0.2805 0.19635,0.4488 0.19635,1.00981 v 5.94668 c 0,0.56101 0,0.72931 -0.19635,1.00982 -0.26648,0.37868 -0.35063,0.40673 -0.33661,0.60308 0.014,0.22441 0.16831,0.32258 0.49089,0.32258 0.014,0 6.32536,0 6.32536,0 0.49088,0 0.70126,-0.1683 0.78541,-0.67321 0.0841,-0.5049 0.21038,-1.15006 0.29453,-1.669 0.0561,-0.36465 -0.0561,-0.57503 -0.35063,-0.57503 z"
           id="path1847" /></g><g
         aria-label="R!"
         transform="scale(0.93836773,1.0656803)"
         id="text718-6-8-5-3-9-4"
         style="font-weight:bold;font-size:14.0252px;font-family:'NT Wagner';-inkscape-font-specification:'NT Wagner Bold';fill:#f6d5ff;stroke-width:1.98782;stroke-linecap:round;stroke-linejoin:round;paint-order:stroke markers fill"><path
           d="m 161.0008,240.46301 c -0.11221,-0.1683 -0.16831,-0.35063 -0.16831,-0.68724 0,-1.06591 -0.58906,-2.0617 -1.57082,-2.67881 -0.0842,-0.0421 -0.0842,-0.15428 0,-0.21038 0.85554,-0.5049 1.41655,-1.41654 1.41655,-2.37026 0,-1.69705 -1.37447,-2.94529 -4.02524,-2.94529 -0.2244,0 -4.31976,0 -4.33378,0 -0.32258,0 -0.46283,0.1122 -0.49089,0.32258 0,0.19635 0.0842,0.23843 0.35063,0.61711 0.18233,0.26648 0.19636,0.43478 0.19636,0.99579 v 5.94668 c 0,0.56101 -0.014,0.74334 -0.19636,1.00982 -0.26647,0.37868 -0.35063,0.42075 -0.35063,0.60308 0.0281,0.22441 0.16831,0.32258 0.49089,0.32258 0.014,0 3.09957,0 3.09957,0 0.32258,0 0.47685,-0.0982 0.49088,-0.32258 0.014,-0.18233 -0.0701,-0.2244 -0.33661,-0.60308 -0.19635,-0.26648 -0.19635,-0.44881 -0.19635,-1.00982 v -1.19214 c 0.014,-0.63113 0.25245,-0.77138 0.81346,-0.77138 0.93969,0 1.6129,0.88358 1.6129,1.97755 0,0.54698 -0.014,0.72931 -0.19635,0.99579 -0.26648,0.37868 -0.35063,0.42075 -0.33661,0.60308 0.014,0.22441 0.15428,0.32258 0.49088,0.32258 0,0 3.08555,0 3.09957,0 0.32258,0 0.46284,-0.0982 0.49089,-0.32258 0,-0.18233 -0.0842,-0.2244 -0.35063,-0.60308 z m -4.81065,-4.01121 c -0.64516,0 -0.78541,-0.12623 -0.81346,-0.61711 v -1.59887 c 0,-1.34642 -0.14025,-1.62692 0.81346,-1.62692 0.72931,0 1.58485,0.93969 1.58485,2.15988 0,1.09396 -0.71529,1.68302 -1.58485,1.68302 z"
           id="path1850" /><path
           d="m 161.94048,233.15588 c 0.18233,1.36044 0.77139,3.88498 0.99579,4.81064 0.0421,0.19636 0.2244,0.33661 0.42076,0.33661 0.21038,0 0.3927,-0.14025 0.43478,-0.33661 0.2244,-0.92566 0.79943,-3.4502 0.98176,-4.81064 0.1683,-1.23422 -0.72931,-1.7251 -1.41654,-1.7251 -0.70126,0 -1.58485,0.49088 -1.41655,1.7251 z m 2.87517,7.09675 c 0,-0.71528 -0.58906,-1.27629 -1.4446,-1.27629 -0.85553,0 -1.44459,0.56101 -1.44459,1.27629 0,0.71529 0.58906,1.27629 1.44459,1.27629 0.85554,0 1.4446,-0.561 1.4446,-1.27629 z"
           id="path1852" /></g><g
         aria-label="W"
         transform="scale(0.93836773,1.0656803)"
         id="text718-6-8-9-2"
         style="font-weight:bold;font-size:14.0252px;font-family:'NT Wagner';-inkscape-font-specification:'NT Wagner Bold';fill:#87aade;stroke-width:1.98782;stroke-linecap:round;stroke-linejoin:round;paint-order:stroke markers fill"><path
           d="m 97.023296,231.89361 c -0.01403,-0.21038 -0.168303,-0.32258 -0.490882,-0.32258 h -2.019629 c -0.32258,0 -0.532958,0.1122 -0.546983,0.32258 -0.0561,0.47686 0.911638,0.63114 0.603084,1.6129 l -1.304344,4.24964 c -0.04208,0.15427 -0.266479,0.14025 -0.308554,0 l -1.220193,-4.24964 c -0.280504,-0.84151 0.462832,-1.15007 0.462832,-1.6129 -0.02805,-0.21038 -0.168302,-0.32258 -0.490882,-0.32258 h -4.039258 c -0.196352,0 -0.322579,0.14025 -0.336604,0.32258 -0.02805,0.50491 0.631134,0.36466 1.07994,1.6129 0.224403,0.63113 0,1.40252 -0.35063,2.63674 -0.182328,0.63113 -0.504907,1.64095 -0.504907,1.64095 -0.0561,0.14025 -0.266479,0.15427 -0.308555,0 l -1.388494,-4.27769 c -0.280504,-0.84151 0.462831,-1.15007 0.462831,-1.6129 -0.01403,-0.21038 -0.168302,-0.32258 -0.490882,-0.32258 h -4.039257 c -0.196353,0 -0.32258,0.14025 -0.336605,0.32258 -0.02805,0.50491 0.645159,0.36466 1.093965,1.6129 1.02384,2.91724 2.496486,6.97052 2.580637,7.15285 0.182328,0.49088 0.392706,0.72931 1.05189,0.72931 h 0.757361 c 0.70126,0 0.911638,-0.2805 1.107991,-0.89761 0.08415,-0.26648 0.631134,-2.07573 1.150066,-3.7868 0.04208,-0.15428 0.252454,-0.15428 0.308555,-0.014 0.687234,2.04768 1.276293,3.85693 1.332394,3.96913 0.182327,0.49088 0.392705,0.72931 1.05189,0.72931 h 0.743335 c 0.715285,0 0.911638,-0.2805 1.107991,-0.89761 0.168302,-0.51893 2.13183,-6.98455 2.13183,-6.98455 0.378681,-1.26227 1.178117,-1.12202 1.150067,-1.6129 z"
           id="path1855" /></g></g></g></svg>
