<?xml version="1.0" encoding="UTF-8" standalone="no"?>
<!-- Created with Inkscape (http://www.inkscape.org/) -->

<svg
   width="21.608335mm"
   height="21.608334mm"
   viewBox="0 0 21.608335 21.608334"
   version="1.1"
   id="svg5"
   xmlns="http://www.w3.org/2000/svg"
   xmlns:svg="http://www.w3.org/2000/svg">
  <defs
     id="defs2">
    <rect
       x="145.1485"
       y="367.94696"
       width="22.549166"
       height="49.247948"
       id="rect452" />
  </defs>
  <g
     id="layer1"
     transform="translate(-8.1217262,-8.784786)">
    <g
       id="g1828"
       transform="matrix(0.28069511,0,0,0.28069511,2.791306,5.8045074)">
      <rect
         style="display:inline;fill:#0044aa;stroke:#acacac;stroke-width:5.34388;stroke-linecap:square;stroke-linejoin:miter;stroke-dasharray:none;stroke-opacity:1;paint-order:markers fill stroke"
         id="rect1168"
         width="71.637634"
         height="71.637634"
         x="21.662008"
         y="13.28943" />
      <g
         aria-label="1"
         transform="matrix(1.8081002,0,0,1.8081002,-219.17474,-654.53493)"
         id="text450"
         style="font-size:40px;white-space:pre;shape-inside:url(#rect452);display:inline;fill:#ffffff;stroke-width:5.66929;stroke-linecap:round;stroke-linejoin:round;paint-order:stroke markers fill">
        <path
           d="m 158.46844,400.72438 c -0.56,-0.8 -0.56,-1.28 -0.56,-2.88 v -20.16 c 0,-1.6 -0.16,-3.64 -3,-2.28 0,0 -6.44,3.08 -7,3.4 -0.8,0.36 -1.24,0.6 -1.32,1.24 -0.08,1.04 1.4,1.6 2.2,2.68 0.72,1 0.56,1.52 0.56,3.12 v 12 c 0,1.6 -0.04,2.08 -0.56,2.88 -0.8,1.08 -1,1.16 -1,1.72 0.08,0.64 0.48,0.92 1.4,0.92 0.04,0 8.84,0 8.84,0 0.92,0 1.36,-0.28 1.4,-0.92 0.04,-0.56 -0.2,-0.64 -0.96,-1.72 z"
           style="font-weight:bold;font-family:'NT Wagner';-inkscape-font-specification:'NT Wagner Bold';fill:#d5e5ff"
           id="path4264" />
      </g>
    </g>
  </g>
</svg>
