<?xml version="1.0" encoding="UTF-8" standalone="no"?>
<!-- Created with Inkscape (http://www.inkscape.org/) -->

<svg
   width="21.608335mm"
   height="21.608337mm"
   viewBox="0 0 21.608335 21.608337"
   version="1.1"
   id="svg5"
   xmlns="http://www.w3.org/2000/svg"
   xmlns:svg="http://www.w3.org/2000/svg">
  <defs
     id="defs2">
    <rect
       x="145.1485"
       y="367.94696"
       width="27.345802"
       height="54.739616"
       id="rect452-6-1-9-6-8-0-5" />
  </defs>
  <g
     id="layer1"
     transform="translate(-31.901477,-77.553365)">
    <g
       id="g1834-2-3-2-7-2-9"
       transform="matrix(0.28069511,0,0,0.28069511,3.9563452,74.601728)">
      <rect
         style="display:inline;fill:#333333;stroke:#acacac;stroke-width:5.34388;stroke-linecap:square;stroke-linejoin:miter;stroke-dasharray:none;stroke-opacity:1;paint-order:markers fill stroke"
         id="rect1168-2-7-6-6-9-3-2"
         width="71.637634"
         height="71.637634"
         x="102.22883"
         y="13.187407" />
      <g
         aria-label="8"
         transform="matrix(1.8081002,0,0,1.8081002,-146.67107,-655.00359)"
         id="text450-9-0-0-1-2-7-2"
         style="font-size:40px;font-family:'NT Wagner';-inkscape-font-specification:'NT Wagner';white-space:pre;shape-inside:url(#rect452-6-1-9-6-8-0-5);display:inline;fill:#e6e6e6;stroke-width:5.66929;stroke-linecap:round;stroke-linejoin:round;paint-order:stroke markers fill">
        <path
           d="m 162.94844,386.72438 c 2.64,-1.04 3.92,-3.24 3.76,-5.56 -0.2,-2.84 -2.4,-6.2 -9.24,-6.2 -6.84,0 -9.04,3.36 -9.24,6.2 -0.16,2.32 1.12,4.52 3.76,5.56 -3.48,1.16 -5.84,3.84 -5.84,8.04 0,6.52 5.76,9 11.32,9 5.56,0 11.32,-2.48 11.32,-9 0,-4.2 -2.36,-6.88 -5.84,-8.04 z m -5.48,-8.72 c 1.2,0 2.16,1.76 2.16,3.92 0,2.2 -0.96,3.96 -2.16,3.96 -1.2,0 -2.16,-1.76 -2.16,-3.96 0,-2.16 0.96,-3.92 2.16,-3.92 z m 0,22.72 c -1.76,0 -3.2,-2.68 -3.2,-6.04 0,-3.36 1.44,-6.04 3.2,-6.04 1.76,0 3.2,2.68 3.2,6.04 0,3.36 -1.44,6.04 -3.2,6.04 z"
           id="path3367" />
      </g>
    </g>
  </g>
</svg>
